<?xml version="1.0" encoding="UTF-8" standalone="no"?>
<!-- Created with Inkscape (http://www.inkscape.org/) -->

<svg
   version="1.1"
   id="svg59"
   width="24.999994"
   height="25.000002"
   viewBox="0 0 24.999995 25.000001"
   sodipodi:docname="calavera.svg"
   inkscape:version="1.2.2 (732a01da63, 2022-12-09)"
   xmlns:inkscape="http://www.inkscape.org/namespaces/inkscape"
   xmlns:sodipodi="http://sodipodi.sourceforge.net/DTD/sodipodi-0.dtd"
   xmlns="http://www.w3.org/2000/svg"
   xmlns:svg="http://www.w3.org/2000/svg">
  <defs
     id="defs63" />
  <sodipodi:namedview
     id="namedview61"
     pagecolor="#ffffff"
     bordercolor="#000000"
     borderopacity="0.25"
     inkscape:showpageshadow="2"
     inkscape:pageopacity="0.0"
     inkscape:pagecheckerboard="0"
     inkscape:deskcolor="#d1d1d1"
     showgrid="false"
     inkscape:zoom="0.44049863"
     inkscape:cx="379.11582"
     inkscape:cy="86.265875"
     inkscape:window-width="1920"
     inkscape:window-height="1017"
     inkscape:window-x="-8"
     inkscape:window-y="-8"
     inkscape:window-maximized="1"
     inkscape:current-layer="g65" />
  <g
     inkscape:groupmode="layer"
     inkscape:label="Image"
     id="g65"
     transform="translate(-556.36946,-695.24579)">
    <g
       id="g167"
       transform="matrix(0.02091344,0,0,0.01913892,556.34947,695.24242)">
      <path
         style="fill:#000000;stroke-width:1.33333"
         d="m 544.71424,1304.5216 c -4.37383,-1.0576 -11.09256,-3.6951 -14.93053,-5.8611 l -6.97814,-3.9382 -6.41052,3.3259 c -3.52578,1.8292 -10.15704,4.0226 -14.73612,4.8742 -14.85718,2.763 -32.32562,-2.4907 -43.6628,-13.1316 -5.32913,-5.0019 -5.33028,-5.0022 -17.32948,-5.0632 -15.33364,-0.078 -23.76653,-3.7422 -36.43457,-15.8319 -4.89432,-4.6709 -12.79876,-11.0787 -17.56542,-14.2395 -23.96147,-15.8889 -43.08028,-36.2181 -52.99478,-56.3497 -10.82196,-21.9742 -15.62762,-43.923 -17.49849,-79.9203 -1.03296,-19.8753 -1.31095,-21.3987 -5.43219,-29.7702 C 299.59726,1065.9795 273.93579,1049.3409 207.99999,1022 140.8801,994.16815 122.79676,981.95611 109.02144,955.15789 96.590361,930.97476 91.611453,906.67045 92.122532,872.66669 L 92.443173,851.33336 80.745068,821.33335 C 33.267415,699.57607 12.414055,623.22035 3.1823896,537.33335 0.53408876,512.69483 0.17250969,460.65543 2.5061001,440.00001 14.376854,334.92784 57.401845,245.52325 132.1063,170.69483 204.38297,98.298221 302.11538,46.503751 415.99999,20.241927 536.59833,-7.5680826 676.40331,-6.417134 794.75598,23.360047 971.33573,67.786992 1105.1935,174.40271 1163.9959,317.45423 c 15.7866,38.40485 25.6818,77.76073 30.8114,122.54578 2.3315,20.35511 1.9757,72.54207 -0.6635,97.33334 -8.9031,83.63027 -29.3924,159.24172 -76.0553,280.66667 l -12.8098,33.33334 -0.4856,28 c -0.5292,30.50977 -2.1027,40.32897 -9.8564,61.50998 -8.0696,22.04382 -18.8462,36.20063 -36.5219,47.97758 -11.2151,7.47236 -40.1494,21.37948 -70.41483,33.84438 -51.93782,21.3909 -82.69193,39.3193 -94.67641,55.1927 -9.33644,12.366 -10.8834,17.5476 -12.09176,40.502 -1.74668,33.1805 -5.3961,52.3341 -13.74197,72.1228 -9.66268,22.9112 -28.81268,45.1638 -52.83872,61.3997 -6.95812,4.702 -16.65557,12.3644 -21.54989,17.0274 -12.67452,12.0757 -21.11487,15.7399 -36.43457,15.8177 -11.9992,0.061 -12.00035,0.061 -17.32948,5.0632 -11.28466,10.5916 -28.8136,15.8931 -43.51178,13.1597 -4.49602,-0.8361 -11.04162,-3.0194 -14.54577,-4.8516 l -6.37119,-3.3314 -7.12089,3.9155 c -9.8023,5.3899 -24.60092,8.5424 -35.3768,7.5361 -10.90401,-1.0182 -23.13314,-6.4817 -28.9703,-12.9427 l -4.52808,-5.0121 -3.78952,4.019 c -11.83042,12.5468 -30.44384,17.0658 -50.4086,12.2383 z M 600.55029,1213 c 0.49013,-3.1166 1.51247,-8.0003 2.27187,-10.8526 l 1.38073,-5.1859 2.39627,3.8526 c 7.73729,12.4396 22.57406,18.4024 37.88221,15.2244 8.62436,-1.7904 17.90968,-7.5909 21.26066,-13.2814 2.57355,-4.3703 4.92462,-5.3683 4.92462,-2.0904 0,1.1 2.2917,4.2917 5.09266,7.0927 6.35156,6.3515 14.61454,8.8794 25.73019,7.8714 11.80496,-1.0704 19.36824,-6.1203 24.51048,-16.3651 3.81239,-7.5954 4.18761,-7.9289 8,-7.1085 13.76255,2.9613 25.61751,0.2755 33.49263,-7.5878 10.51369,-10.498 14.40203,-28.3385 16.39777,-75.236 1.50564,-35.3807 4.22444,-47.4816 16.02698,-71.3334 9.71516,-19.6333 21.07466,-34.8519 38.35686,-51.3874 17.60388,-16.84332 34.63937,-28.75331 56.39242,-39.42552 73.7782,-36.19616 78.23999,-38.75527 92.71536,-53.17762 16.3045,-16.24474 24.369,-34.20146 30.1226,-67.07208 2.4883,-14.21572 2.9707,-21.97227 3.0023,-48.27069 0.047,-39.19143 -3.2819,-72.25563 -11.9476,-118.66667 -4.4078,-23.6067 -14.22315,-66.4971 -19.21187,-83.95059 -2.18128,-7.63144 -3.74708,-14.09423 -3.47956,-14.36176 1.00341,-1.0034 20.48133,17.30994 29.46543,27.70368 14.0747,16.28312 25.0389,32.24285 33.9173,49.37091 11.9204,22.99668 17.0894,39.86417 22.2392,72.57109 l 0.8397,5.33333 3.2326,-9.33333 c 22.2577,-64.26449 29.4865,-119.23991 28.0799,-213.54703 -0.5311,-35.60643 -1.1791,-47.14895 -3.4684,-61.78631 -12.2562,-78.36196 -42.7479,-139.14279 -95.6921,-190.7483 -19.40469,-18.91401 -31.82246,-28.87504 -55.14819,-44.23758 -18.41536,-12.12854 -58.38488,-32.92479 -78.66667,-40.9305 -55.89926,-22.06477 -116.24487,-35.9856 -189.33333,-43.67633 -32.38059,-3.40725 -132.63269,-3.40014 -164.66666,0.0117 -95.61352,10.18345 -164.35363,28.85586 -230.59774,62.63903 -36.61869,18.6748 -65.52293,39.19979 -93.21709,66.1937 -44.48706,43.36221 -72.08777,91.1254 -87.56934,151.53925 -9.050047,35.31608 -10.854003,51.16507 -11.593847,101.85981 -1.370284,93.89312 5.831832,148.43811 28.082587,212.68258 l 3.23255,9.33333 0.83975,-5.33333 c 5.14979,-32.70693 10.3188,-49.57442 22.23922,-72.5711 9.10427,-17.56379 20.38468,-33.86807 34.70837,-50.16613 9.25451,-10.53015 27.68427,-27.89851 28.61539,-26.96739 0.23059,0.2306 -1.33516,6.70847 -3.47944,14.39527 -20.89224,74.89453 -33.6555,162.77261 -31.35534,215.88912 2.67726,61.82503 17.63397,95.81523 51.29982,116.5826 14.47995,8.9322 45.17359,25.09456 54.79512,28.85348 49.51558,19.34462 96.5551,60.94062 116.44794,102.97238 10.7079,22.6248 13.11922,35.5034 15.54266,83.0118 1.47944,29.0025 3.47954,40.8934 8.75377,52.0422 6.97956,14.7535 21.40974,20.8144 39.92229,16.768 3.8082,-0.8324 4.17689,-0.5105 7.68909,6.7136 10.48148,21.5589 43.76258,23.4178 55.27766,3.0874 1.64416,-2.9028 2.99925,-4.5296 3.01132,-3.615 0.0397,3.0135 9.92057,12.7203 15.35526,15.0848 16.30151,7.0925 35.46533,2.6277 45.16787,-10.5234 1.78141,-2.4145 3.5774,-3.8424 3.99109,-3.1731 0.41368,0.6694 1.50899,5.2067 2.434,10.0829 0.92501,4.8763 2.06833,8.8659 2.54071,8.8659 0.47236,0 1.25985,-2.55 1.74997,-5.6666 z m -67.71364,-186.8763 c -7.15686,-2.6637 -14.13612,-8.6215 -17.40948,-14.8614 -4.31577,-8.227 -3.80938,-28.39315 1.06962,-42.59561 4.54388,-13.22699 14.54902,-34.31683 22.13894,-46.66667 15.90527,-25.88005 38.97692,-51.66222 52.62568,-58.80825 l 7.25265,-3.79725 5.87699,2.85525 c 21.42043,10.40685 53.24113,55.39476 66.60314,94.16308 3.80622,11.04328 4.21878,13.76863 4.17623,27.58718 -0.0537,17.43377 -1.51205,23.97727 -7.04668,31.61757 -6.76908,9.3444 -21.57252,14.2493 -33.39664,11.0654 -4.44066,-1.1958 -8.10472,-3.8016 -14.7229,-10.4708 -9.55534,-9.629 -17.02191,-22.99299 -23.17659,-41.48254 -3.01319,-9.05202 -3.38241,-9.58638 -4.14588,-6 -5.09299,23.92445 -18.62612,46.04634 -33.50225,54.76434 -7.23698,4.2412 -18.88819,5.4043 -26.34283,2.6297 z M 375.33332,869.74868 c -21.76549,-2.82112 -53.98538,-12.75443 -65.49053,-20.19056 -15.57282,-10.06522 -27.66416,-27.53697 -33.37398,-48.22477 -3.36018,-12.17456 -3.38184,-49.1465 -0.0385,-65.7891 3.74478,-18.64119 11.16243,-42.94875 16.73491,-54.84014 25.70221,-54.84707 79.23346,-85.78243 137.37002,-79.38523 36.28437,3.99264 61.15743,15.18468 81.08212,36.48424 22.02108,23.54062 34.1032,55.38823 33.9653,89.53023 -0.0739,18.28194 -2.22586,28.28216 -10.81217,50.24312 -19.3821,49.57308 -59.97342,82.78609 -111.36401,91.12131 -10.92108,1.77134 -37.95529,2.36231 -48.07309,1.0509 z m 397.99999,-0.96359 c -37.32173,-6.66132 -69.04438,-25.62535 -90.47769,-54.08819 -12.57841,-16.70379 -23.48003,-40.50285 -29.02488,-63.36355 -2.71305,-11.18558 -3.03816,-36.05012 -0.63385,-48.47992 7.83225,-40.49147 33.01154,-74.59744 66.17362,-89.63384 20.56048,-9.32257 52.67646,-14.47555 75.04945,-12.04163 48.93472,5.32352 88.36502,33.89566 109.74819,79.52615 5.57248,11.89139 12.99013,36.19895 16.7349,54.84014 3.33811,16.61688 3.32107,53.6044 -0.0303,65.7891 -5.60916,20.3933 -17.99039,38.27654 -33.39232,48.23129 -8.25915,5.33813 -29.26203,12.78269 -48.81377,17.30222 -14.83211,3.42856 -50.93279,4.4885 -65.33333,1.91823 z"
         id="path177" />
    </g>
  </g>
</svg>
