<?xml version="1.0" encoding="UTF-8" standalone="no"?>
<!-- Created with Inkscape (http://www.inkscape.org/) -->

<svg
   width="9.9999952mm"
   height="10.00001mm"
   viewBox="0 0 9.9999952 10.00001"
   version="1.1"
   id="svg328"
   xml:space="preserve"
   inkscape:version="1.2.2 (732a01da63, 2022-12-09)"
   sodipodi:docname="cart-icon.svg"
   xmlns:inkscape="http://www.inkscape.org/namespaces/inkscape"
   xmlns:sodipodi="http://sodipodi.sourceforge.net/DTD/sodipodi-0.dtd"
   xmlns="http://www.w3.org/2000/svg"
   xmlns:svg="http://www.w3.org/2000/svg"><sodipodi:namedview
     id="namedview330"
     pagecolor="#ffffff"
     bordercolor="#000000"
     borderopacity="0.25"
     inkscape:showpageshadow="2"
     inkscape:pageopacity="0.0"
     inkscape:pagecheckerboard="0"
     inkscape:deskcolor="#d1d1d1"
     inkscape:document-units="mm"
     showgrid="false"
     inkscape:zoom="0.74564394"
     inkscape:cx="29.504699"
     inkscape:cy="92.537465"
     inkscape:window-width="1920"
     inkscape:window-height="1017"
     inkscape:window-x="-8"
     inkscape:window-y="-8"
     inkscape:window-maximized="1"
     inkscape:current-layer="layer1" /><defs
     id="defs325" /><g
     inkscape:label="Capa 1"
     inkscape:groupmode="layer"
     id="layer1"
     transform="translate(-97.10926,-124.31506)"><path
       d="m 98.90638,125.02885 h -1.484844 c -0.172466,0 -0.312276,-0.15979 -0.312276,-0.3569 0,-0.19711 0.13981,-0.35689 0.312276,-0.35689 h 1.484844 c 0.172468,0 0.312276,0.15978 0.312276,0.35689 0,0.19711 -0.139808,0.3569 -0.312276,0.3569 z m 6.71905,7.50058 h -5.07807 c -0.17246,0 -0.31227,-0.15979 -0.31227,-0.35689 0,-0.19711 0.13981,-0.3569 0.31227,-0.3569 h 5.07909 c 0.17247,0 0.31228,0.15979 0.31228,0.3569 0,0.1971 -0.14083,0.35689 -0.3133,0.35689 z m 1.17257,-6.07185 h -7.423204 c -0.172468,0 -0.312276,-0.15978 -0.312276,-0.35689 0,-0.19711 0.139808,-0.35689 0.312276,-0.35689 h 7.422184 c 0.17246,0 0.31227,0.15978 0.31227,0.35689 10e-4,0.19711 -0.13879,0.35689 -0.31125,0.35689 z m -0.48883,2.1437 h -6.44555 c -0.172464,0 -0.312276,-0.15979 -0.312276,-0.3569 0,-0.1971 0.139812,-0.35689 0.312276,-0.35689 h 6.44555 c 0.17247,0 0.31228,0.15979 0.31228,0.35689 0,0.19594 -0.13981,0.3569 -0.31228,0.3569 z m -0.44902,2.14252 h -5.50873 c -0.17246,0 -0.31227,-0.15979 -0.31227,-0.3569 0,-0.1971 0.13981,-0.35689 0.31227,-0.35689 h 5.50873 c 0.17246,0 0.31227,0.15979 0.31227,0.35689 0,0.19711 -0.13981,0.3569 -0.31227,0.3569 z m -2.85233,-0.0443 c -0.17247,0 -0.31228,-0.15979 -0.31228,-0.3569 v -3.84068 c 0,-0.1971 0.13981,-0.35689 0.31228,-0.35689 0.17246,0 0.31227,0.15979 0.31227,0.35689 v 3.83952 c 0.001,0.19827 -0.13879,0.35806 -0.31227,0.35806 z m 2.15124,-4.45416 -0.40004,3.81268 c -0.0204,0.19594 -0.17655,0.3359 -0.348,0.31258 -0.17144,-0.0233 -0.29391,-0.20178 -0.2735,-0.39655 l 0.40106,-3.81269 c 0.0204,-0.19594 0.17655,-0.3359 0.348,-0.31257 0.17144,0.0233 0.29288,0.20177 0.27248,0.39655 z m 1.93386,-0.049 -0.90111,4.15209 c -0.0408,0.19127 -0.21022,0.30907 -0.37861,0.26125 -0.16736,-0.0466 -0.27043,-0.24026 -0.22859,-0.4327 l 0.90111,-4.15209 c 0.0408,-0.19128 0.21022,-0.30907 0.37861,-0.26125 0.16737,0.0478 0.26941,0.24142 0.22859,0.4327 z m -5.4781,4.22907 c -0.17145,0.0256 -0.32759,-0.11314 -0.35004,-0.30908 l -0.40208,-3.58759 c -0.0224,-0.19594 0.099,-0.37439 0.27044,-0.40005 0.17144,-0.0257 0.32758,0.11314 0.35003,0.30908 l 0.40208,3.58759 c 0.0214,0.19594 -0.099,0.37439 -0.27043,0.40005 z m -1.00929,2.02006 c -0.16838,0.0478 -0.33779,-0.0688 -0.37963,-0.26009 l -1.606284,-7.3548 c -0.04184,-0.19127 0.06021,-0.38488 0.228596,-0.4327 0.168384,-0.0478 0.337788,0.0688 0.379632,0.26009 l 1.605256,7.35479 c 0.0418,0.19128 -0.0602,0.38605 -0.22757,0.43271 z m 0.48883,1.8696 c -0.34494,0 -0.62456,-0.31957 -0.62456,-0.71378 0,-0.39422 0.27962,-0.71496 0.62456,-0.71496 0.34493,0 0.62455,0.31957 0.62455,0.71496 0,0.39421 -0.27962,0.71378 -0.62455,0.71378 z m 3.82794,0 c -0.34494,0 -0.62456,-0.31957 -0.62456,-0.71378 0,-0.39422 0.27962,-0.71496 0.62456,-0.71496 0.34493,0 0.62557,0.31957 0.62557,0.71496 0,0.39421 -0.28064,0.71378 -0.62557,0.71378 z"
       id="path334"
       style="fill:#ffffff; stroke-width:0.3; stroke:white"/></g></svg>
