<?xml version="1.0" encoding="UTF-8" standalone="no"?>
<!-- Created with Inkscape (http://www.inkscape.org/) -->

<svg
   width="15.000002mm"
   height="15.000002mm"
   viewBox="0 0 15.000002 15.000002"
   version="1.1"
   id="svg654"
   xml:space="preserve"
   inkscape:version="1.2.2 (732a01da63, 2022-12-09)"
   sodipodi:docname="delete-icon.svg"
   xmlns:inkscape="http://www.inkscape.org/namespaces/inkscape"
   xmlns:sodipodi="http://sodipodi.sourceforge.net/DTD/sodipodi-0.dtd"
   xmlns="http://www.w3.org/2000/svg"
   xmlns:svg="http://www.w3.org/2000/svg"><sodipodi:namedview
     id="namedview656"
     pagecolor="#ffffff"
     bordercolor="#000000"
     borderopacity="0.25"
     inkscape:showpageshadow="2"
     inkscape:pageopacity="0.0"
     inkscape:pagecheckerboard="0"
     inkscape:deskcolor="#d1d1d1"
     inkscape:document-units="mm"
     showgrid="false"
     inkscape:zoom="0.74564394"
     inkscape:cx="25.481331"
     inkscape:cy="2.6822454"
     inkscape:window-width="1920"
     inkscape:window-height="1017"
     inkscape:window-x="-8"
     inkscape:window-y="-8"
     inkscape:window-maximized="1"
     inkscape:current-layer="layer1" /><defs
     id="defs651" /><g
     inkscape:label="Capa 1"
     inkscape:groupmode="layer"
     id="layer1"
     transform="translate(-98.198925,-147.87634)"><g
       style="fill:#000000"
       id="g680"
       transform="matrix(0.04545455,0,0,0.04545455,98.198925,147.87634)"><g
         id="XMLID_6_">
	<g
   id="XMLID_11_">
		<path
   d="M 240,121.076 H 30 V 275 c 0,8.284 6.716,15 15,15 h 60 37.596 c 19.246,24.348 49.031,40 82.404,40 57.897,0 105,-47.103 105,-105 0,-52.805 -39.184,-96.623 -90,-103.924 z M 225,300 c -41.355,0 -75,-33.645 -75,-75 0,-41.355 33.645,-75 75,-75 41.355,0 75,33.645 75,75 0,41.355 -33.645,75 -75,75 z"
   id="path658" />
	</g>
	<g
   id="XMLID_18_">
		<path
   d="m 240,90 h 15 c 8.284,0 15,-6.716 15,-15 0,-8.284 -6.716,-15 -15,-15 H 225 210 V 15 C 210,6.716 203.284,0 195,0 H 75 C 66.716,0 60,6.716 60,15 V 60 H 45 15 C 6.716,60 0,66.716 0,75 0,83.284 6.716,90 15,90 H 30 Z M 90,30 h 90 V 60 H 165 105 90 Z"
   id="path661" />
	</g>
	<g
   id="XMLID_23_">
		<path
   d="m 256.819,193.181 c -5.857,-5.858 -15.355,-5.858 -21.213,0 L 225,203.787 214.394,193.181 c -5.857,-5.858 -15.355,-5.858 -21.213,0 -5.858,5.858 -5.858,15.355 0,21.213 L 203.787,225 193.181,235.606 c -5.858,5.858 -5.858,15.355 0,21.213 2.929,2.929 6.768,4.394 10.606,4.394 3.839,0 7.678,-1.465 10.607,-4.394 L 225,246.213 l 10.606,10.606 c 2.929,2.929 6.768,4.394 10.607,4.394 3.839,0 7.678,-1.465 10.606,-4.394 5.858,-5.858 5.858,-15.355 0,-21.213 L 246.213,225 256.819,214.394 c 5.859,-5.859 5.859,-15.355 0,-21.213 z"
   id="path664" />
	</g>
</g></g></g></svg>
