<?xml version="1.0" encoding="UTF-8" standalone="no"?>
<!-- Created with Inkscape (http://www.inkscape.org/) -->

<svg
   width="15.000738mm"
   height="14.999404mm"
   viewBox="0 0 15.000738 14.999404"
   version="1.1"
   id="svg546"
   xml:space="preserve"
   inkscape:version="1.2.2 (732a01da63, 2022-12-09)"
   sodipodi:docname="minus-icon.svg"
   xmlns:inkscape="http://www.inkscape.org/namespaces/inkscape"
   xmlns:sodipodi="http://sodipodi.sourceforge.net/DTD/sodipodi-0.dtd"
   xmlns="http://www.w3.org/2000/svg"
   xmlns:svg="http://www.w3.org/2000/svg"><sodipodi:namedview
     id="namedview548"
     pagecolor="#ffffff"
     bordercolor="#000000"
     borderopacity="0.25"
     inkscape:showpageshadow="2"
     inkscape:pageopacity="0.0"
     inkscape:pagecheckerboard="0"
     inkscape:deskcolor="#d1d1d1"
     inkscape:document-units="mm"
     showgrid="false"
     inkscape:zoom="0.74564394"
     inkscape:cx="44.257049"
     inkscape:cy="-241.40208"
     inkscape:window-width="1920"
     inkscape:window-height="1017"
     inkscape:window-x="-8"
     inkscape:window-y="-8"
     inkscape:window-maximized="1"
     inkscape:current-layer="layer1" /><defs
     id="defs543"><filter
       id="filter3816"
       inkscape:collect="always"
       color-interpolation-filters="sRGB"
       x="-0.031878628"
       y="-0.031878628"
       width="1.0637573"
       height="1.0637573"><feGaussianBlur
         id="feGaussianBlur3818"
         stdDeviation="0.63462833"
         inkscape:collect="always" /></filter><radialGradient
       id="radialGradient6070"
       gradientUnits="userSpaceOnUse"
       cy="1355.4"
       cx="-181.81"
       r="31.731001"
       inkscape:collect="always"><stop
         id="stop3798"
         style="stop-color:#f63ec5"
         offset="0" /><stop
         id="stop3804"
         style="stop-color:#f876c2"
         offset=".87786" /><stop
         id="stop3800"
         style="stop-color:#f99dd2"
         offset="1" /></radialGradient></defs><g
     inkscape:label="Capa 1"
     inkscape:groupmode="layer"
     id="layer1"
     transform="translate(-93.454682,-212.65982)"><g
       id="g5831"
       transform="matrix(0.35714606,0,0,0.3571143,-83.633617,-33.859555)"><g
         id="g5833"
         transform="matrix(0.61692,0,0,0.61692,367.58,221.2)"><circle
           id="path5835"
           style="fill:none;stroke:#000000;filter:url(#filter3816)"
           transform="matrix(1.0085,0,0,1.0085,425.31,-572.52)"
           cx="-181.81483"
           cy="1355.4458"
           r="31.731417" /><circle
           id="path5837"
           style="fill:url(#radialGradient6070)"
           transform="matrix(1.0085,0,0,1.0085,425.31,-572.52)"
           cx="-181.81483"
           cy="1355.4458"
           r="31.731417" /><circle
           id="path5839"
           style="fill:#71123b"
           transform="matrix(0.88241,0,0,0.88241,402.39,-401.65)"
           cx="-181.81483"
           cy="1355.4458"
           r="31.731417" /><circle
           id="path5841"
           style="fill:#ff569d"
           transform="matrix(0.85089,0,0,0.85089,396.66,-358.94)"
           cx="-181.81483"
           cy="1355.4458"
           r="31.731417" /><path
           id="path5843"
           style="fill:#f53083"
           inkscape:connector-curvature="0"
           d="m 240.96,779.92 c -5.9532,0 -11.223,2.89 -14.5,7.3438 -1.7374,-0.5587 -3.577,-0.8438 -5.5,-0.8438 -1.7392,0 -3.4091,0.2585 -5,0.7188 -0.64736,2.3166 -1,4.758 -1,7.2812 0,14.912 12.088,27 27,27 14.912,0 27,-12.088 27,-27 0,-2.2384 -0.26779,-4.4201 -0.78125,-6.5 -2.2106,-0.9694 -4.6503,-1.5 -7.2188,-1.5 -1.923,0 -3.7626,0.2852 -5.5,0.8438 -3.2767,-4.4539 -8.5468,-7.3438 -14.5,-7.3438 z" /></g><path
         id="path5845"
         d="m 511.04,714.03 c 0.0587,0.27731 0.4702,0.26122 0.54218,0.30121 3.5241,0 7.0482,-0.30121 10.663,-0.30121 0.33133,0 0.39157,-0.27109 0.42169,-0.54217 v -3.2229 c 0,-0.99398 -0.0602,-1.9578 -0.42169,-2.0181 h -1.0241 c -0.36145,-0.0301 -0.7229,-0.0301 -1.0844,-0.0301 -2.9217,0.0301 -5.7229,0.0301 -8.6145,0.0301 -0.36144,0 -0.48193,0.75302 -0.48193,1.5362 v 4.247"
         sodipodi:nodetypes="ccscscccssc"
         style="fill:none;stroke:#000000;stroke-width:2.5;stroke-opacity:0.72549"
         inkscape:connector-curvature="0" /><path
         id="path5847"
         sodipodi:nodetypes="ccscscccssc"
         inkscape:connector-curvature="0"
         style="fill:#ffffff"
         d="m 511.04,714.03 c 0.0587,0.27731 0.4702,0.26122 0.54218,0.30121 3.5241,0 7.0482,-0.30121 10.663,-0.30121 0.33133,0 0.39157,-0.27109 0.42169,-0.54217 v -3.2229 c 0,-0.99398 -0.0602,-1.9578 -0.42169,-2.0181 h -1.0241 c -0.36145,-0.0301 -0.7229,-0.0301 -1.0844,-0.0301 -2.9217,0.0301 -5.7229,0.0301 -8.6145,0.0301 -0.36144,0 -0.48193,0.75302 -0.48193,1.5362 v 4.247" /></g></g></svg>
