<?xml version="1.0" encoding="UTF-8" standalone="no"?>
<!-- Created with Inkscape (http://www.inkscape.org/) -->

<svg
   width="14.999998mm"
   height="15mm"
   viewBox="0 0 14.999998 15"
   version="1.1"
   id="svg488"
   xml:space="preserve"
   inkscape:version="1.2.2 (732a01da63, 2022-12-09)"
   sodipodi:docname="next-icon.svg"
   xmlns:inkscape="http://www.inkscape.org/namespaces/inkscape"
   xmlns:sodipodi="http://sodipodi.sourceforge.net/DTD/sodipodi-0.dtd"
   xmlns="http://www.w3.org/2000/svg"
   xmlns:svg="http://www.w3.org/2000/svg"><sodipodi:namedview
     id="namedview490"
     pagecolor="#ffffff"
     bordercolor="#000000"
     borderopacity="0.25"
     inkscape:showpageshadow="2"
     inkscape:pageopacity="0.0"
     inkscape:pagecheckerboard="0"
     inkscape:deskcolor="#d1d1d1"
     inkscape:document-units="mm"
     showgrid="false"
     inkscape:zoom="0.74564394"
     inkscape:cx="24.140208"
     inkscape:cy="-225.30861"
     inkscape:window-width="1920"
     inkscape:window-height="1017"
     inkscape:window-x="-8"
     inkscape:window-y="-8"
     inkscape:window-maximized="1"
     inkscape:current-layer="layer1" /><defs
     id="defs485" /><g
     inkscape:label="Capa 1"
     inkscape:groupmode="layer"
     id="layer1"
     transform="translate(-98.711742,-208.3569)"><path
       d="m 103.34431,208.92575 c 0.88379,-0.36621 1.85303,-0.56885 2.86743,-0.56885 2.07031,0 3.94654,0.83985 5.30274,2.19727 0.69091,0.69091 1.24755,1.51733 1.62841,2.4353 0.36621,0.88379 0.56885,1.85303 0.56885,2.86743 0,2.07032 -0.83984,3.94653 -2.19726,5.30273 -0.69092,0.69093 -1.51734,1.24757 -2.43531,1.62843 -0.88379,0.36621 -1.85302,0.56884 -2.86743,0.56884 -1.0144,0 -1.98364,-0.20263 -2.86743,-0.56884 -0.91919,-0.38086 -1.74439,-0.9375 -2.4353,-1.62843 -0.69092,-0.69091 -1.248784,-1.51611 -1.62842,-2.43529 -0.366211,-0.8838 -0.568848,-1.85303 -0.568848,-2.86744 0,-1.0144 0.202637,-1.98364 0.568848,-2.86743 0.379636,-0.91919 0.9375,-1.74439 1.62842,-2.4353 0.6897,-0.69092 1.51611,-1.24878 2.4353,-1.62842 z m 1.47095,5.18433 c -0.30274,-0.30762 -0.29907,-0.80323 0.01,-1.10474 0.30762,-0.30274 0.80322,-0.29907 1.10474,0.01 l 2.27905,2.31567 c 0.29907,0.30518 0.29907,0.79224 0,1.09619 l -2.23511,2.27173 c -0.30273,0.30762 -0.79712,0.31128 -1.10474,0.01 -0.30762,-0.30273 -0.31128,-0.79712 -0.01,-1.10473 l 1.69678,-1.72486 z m -0.87159,-3.73291 c -0.72387,0.30029 -1.37695,0.74096 -1.92382,1.28784 -0.54688,0.54687 -0.98755,1.19995 -1.28784,1.92383 -0.28931,0.69702 -0.448,1.46362 -0.448,2.26806 0,0.80445 0.15991,1.56983 0.448,2.26807 0.30029,0.72387 0.74096,1.37695 1.28784,1.92383 0.54687,0.54687 1.19995,0.98754 1.92382,1.28784 0.69825,0.2893 1.46363,0.448 2.26807,0.448 0.80445,0 1.56983,-0.15991 2.26807,-0.448 0.72388,-0.3003 1.37695,-0.74097 1.92383,-1.28784 0.54687,-0.54688 0.98754,-1.19873 1.28784,-1.92383 0.28931,-0.69702 0.448,-1.46362 0.448,-2.26807 0,-0.80444 -0.15992,-1.56982 -0.448,-2.26806 -0.3003,-0.72388 -0.74097,-1.37696 -1.28784,-1.92383 -0.54688,-0.54688 -1.19995,-0.98755 -1.92383,-1.28784 -0.69702,-0.28931 -1.46362,-0.448 -2.26807,-0.448 -0.80444,0 -1.56982,0.15991 -2.26807,0.448 z"
       id="path492"
       style="stroke-width:0.12207" /></g></svg>
