<?xml version="1.0" encoding="UTF-8" standalone="no"?>
<!-- Created with Inkscape (http://www.inkscape.org/) -->

<svg
   width="15.000004mm"
   height="15mm"
   viewBox="0 0 15.000004 15"
   version="1.1"
   id="svg359"
   xml:space="preserve"
   inkscape:version="1.2.2 (732a01da63, 2022-12-09)"
   sodipodi:docname="previous-icon.svg"
   xmlns:inkscape="http://www.inkscape.org/namespaces/inkscape"
   xmlns:sodipodi="http://sodipodi.sourceforge.net/DTD/sodipodi-0.dtd"
   xmlns="http://www.w3.org/2000/svg"
   xmlns:svg="http://www.w3.org/2000/svg"><sodipodi:namedview
     id="namedview361"
     pagecolor="#ffffff"
     bordercolor="#000000"
     borderopacity="0.25"
     inkscape:showpageshadow="2"
     inkscape:pageopacity="0.0"
     inkscape:pagecheckerboard="0"
     inkscape:deskcolor="#d1d1d1"
     inkscape:document-units="mm"
     showgrid="false"
     inkscape:zoom="0.74564394"
     inkscape:cx="49.621539"
     inkscape:cy="-272.2479"
     inkscape:window-width="1920"
     inkscape:window-height="1017"
     inkscape:window-x="-8"
     inkscape:window-y="-8"
     inkscape:window-maximized="1"
     inkscape:current-layer="layer1" /><defs
     id="defs356" /><g
     inkscape:label="Capa 1"
     inkscape:groupmode="layer"
     id="layer1"
     transform="translate(-91.969806,-220.77626)"><path
       d="m 102.33724,221.34511 c -0.88379,-0.36621 -1.85303,-0.56885 -2.867433,-0.56885 -2.070317,0 -3.946535,0.83984 -5.302736,2.19727 -0.690917,0.68969 -1.248779,1.51611 -1.628417,2.4353 -0.366211,0.88379 -0.568848,1.85302 -0.568848,2.86743 0,2.07031 0.839844,3.94654 2.197265,5.30273 0.690918,0.69092 1.517335,1.24756 2.435301,1.62842 0.883794,0.36621 1.853027,0.56885 2.867435,0.56885 1.014403,0 1.983643,-0.20264 2.867433,-0.56885 0.91918,-0.38086 1.74438,-0.9375 2.4353,-1.62842 0.69092,-0.69091 1.24756,-1.51733 1.62842,-2.4353 0.36621,-0.88379 0.56885,-1.85302 0.56885,-2.86743 0,-1.01441 -0.20264,-1.98364 -0.56885,-2.86743 -0.38086,-0.91919 -0.9375,-1.74439 -1.62842,-2.4353 -0.69092,-0.69092 -1.51612,-1.24878 -2.4353,-1.62842 z m -1.47095,5.18432 c 0.30273,-0.30761 0.29907,-0.80322 -0.01,-1.10474 -0.30884,-0.30151 -0.80323,-0.29907 -1.104739,0.01 l -2.279051,2.31568 c -0.299076,0.30518 -0.299076,0.79223 0,1.09619 l 2.236325,2.27295 c 0.302735,0.30762 0.797115,0.31128 1.104735,0.01 0.30762,-0.30273 0.31128,-0.79711 0.01,-1.10473 l -1.696779,-1.72485 z m 0.87158,-3.73291 c 0.72387,0.3003 1.37695,0.74097 1.92383,1.28785 0.54687,0.54687 0.98755,1.19995 1.28784,1.92382 0.2893,0.69702 0.448,1.46363 0.448,2.26807 0,0.80444 -0.15992,1.56982 -0.448,2.26807 -0.30029,0.72387 -0.74097,1.37695 -1.28784,1.92382 -0.54688,0.54688 -1.19996,0.98755 -1.92383,1.28784 -0.69824,0.28809 -1.46362,0.44801 -2.268063,0.44801 -0.80445,0 -1.569828,-0.15992 -2.268065,-0.44801 -0.72388,-0.30029 -1.376956,-0.74096 -1.923831,-1.28784 -0.546875,-0.54687 -0.987548,-1.19873 -1.287842,-1.92382 -0.289306,-0.69702 -0.447997,-1.46363 -0.447997,-2.26807 0,-0.80444 0.159912,-1.56982 0.447997,-2.26807 0.300294,-0.72387 0.740967,-1.37695 1.287842,-1.92382 0.546875,-0.54688 1.199951,-0.98755 1.923831,-1.28785 0.697019,-0.2893 1.463615,-0.448 2.268065,-0.448 0.804443,0 1.569823,0.15992 2.268063,0.448 z"
       id="path363"
       style="stroke-width:0.12207" /></g></svg>
